<?xml version="1.0" encoding="UTF-8" standalone="no"?>
<!-- Created with Inkscape (http://www.inkscape.org/) -->

<svg
   width="116.61312mm"
   height="116.6854mm"
   viewBox="0 0 116.61312 116.6854"
   version="1.1"
   id="svg1"
   xml:space="preserve"
   inkscape:version="1.3 (0e150ed, 2023-07-21)"
   sodipodi:docname="bettercare logo.svg"
   xmlns:inkscape="http://www.inkscape.org/namespaces/inkscape"
   xmlns:sodipodi="http://sodipodi.sourceforge.net/DTD/sodipodi-0.dtd"
   xmlns:xlink="http://www.w3.org/1999/xlink"
   xmlns="http://www.w3.org/2000/svg"
   xmlns:svg="http://www.w3.org/2000/svg"><sodipodi:namedview
     id="namedview1"
     pagecolor="#ffffff"
     bordercolor="#eeeeee"
     borderopacity="1"
     inkscape:showpageshadow="0"
     inkscape:pageopacity="0"
     inkscape:pagecheckerboard="0"
     inkscape:deskcolor="#505050"
     inkscape:document-units="mm"
     showguides="true"
     inkscape:zoom="0.52529696"
     inkscape:cx="387.39992"
     inkscape:cy="467.3547"
     inkscape:window-width="1440"
     inkscape:window-height="872"
     inkscape:window-x="1680"
     inkscape:window-y="92"
     inkscape:window-maximized="0"
     inkscape:current-layer="layer2" /><defs
     id="defs1"><linearGradient
       id="linearGradient126"
       inkscape:collect="always"><stop
         style="stop-color:#3c5693;stop-opacity:1;"
         offset="0"
         id="stop126" /><stop
         style="stop-color:#1bc2d7;stop-opacity:1;"
         offset="1"
         id="stop127" /></linearGradient><linearGradient
       id="linearGradient124"
       inkscape:collect="always"><stop
         style="stop-color:#3c5693;stop-opacity:1;"
         offset="0"
         id="stop124" /><stop
         style="stop-color:#1bc2d7;stop-opacity:1;"
         offset="1"
         id="stop125" /></linearGradient><linearGradient
       id="linearGradient120"
       inkscape:collect="always"><stop
         style="stop-color:#3c5693;stop-opacity:1;"
         offset="0"
         id="stop120" /><stop
         style="stop-color:#1bc2d7;stop-opacity:1;"
         offset="1"
         id="stop121" /></linearGradient><linearGradient
       id="linearGradient117"
       inkscape:collect="always"><stop
         style="stop-color:#3c5693;stop-opacity:1;"
         offset="0"
         id="stop117" /><stop
         style="stop-color:#1bc2d7;stop-opacity:1;"
         offset="1"
         id="stop118" /></linearGradient><linearGradient
       id="swatch112"
       inkscape:swatch="solid"><stop
         style="stop-color:#3b5693;stop-opacity:1;"
         offset="0"
         id="stop112" /></linearGradient><linearGradient
       id="swatch101"
       inkscape:swatch="solid"><stop
         style="stop-color:#3b5693;stop-opacity:1;"
         offset="0"
         id="stop102" /></linearGradient><linearGradient
       inkscape:collect="always"
       xlink:href="#linearGradient117"
       id="linearGradient119"
       gradientUnits="userSpaceOnUse"
       x1="-13.430706"
       y1="-0.99141037"
       x2="37.306767"
       y2="-0.99141037"
       gradientTransform="rotate(90,-5.2747605,141.92567)" /><linearGradient
       inkscape:collect="always"
       xlink:href="#linearGradient120"
       id="linearGradient121"
       x1="-79.378616"
       y1="-0.92681867"
       x2="-28.640629"
       y2="-0.92681867"
       gradientUnits="userSpaceOnUse"
       gradientTransform="rotate(90,-5.2747605,141.92567)" /><linearGradient
       inkscape:collect="always"
       xlink:href="#linearGradient124"
       id="linearGradient125"
       x1="111.91101"
       y1="154.98788"
       x2="162.50449"
       y2="154.98788"
       gradientUnits="userSpaceOnUse"
       gradientTransform="translate(33.37597,-28.855679)" /><linearGradient
       inkscape:collect="always"
       xlink:href="#linearGradient126"
       id="linearGradient127"
       x1="45.891357"
       y1="155.05247"
       x2="96.62883"
       y2="155.05247"
       gradientUnits="userSpaceOnUse"
       gradientTransform="translate(33.37597,-28.855679)" /></defs><g
     inkscape:groupmode="layer"
     id="layer2"
     inkscape:label="icon"
     style="display:inline;opacity:1"
     transform="translate(-79.267328,-67.821806)"><g
       id="g143"><path
         style="fill:url(#linearGradient127);fill-opacity:1;stroke:#00ccff;stroke-width:0"
         d="m 130.0048,105.60555 h -12.95373 -15.60704 a 22.176704,22.176704 0 0 0 -22.176702,22.1767 20.622503,20.622503 0 0 0 22.176702,18.9412 h 12.6067 v -12.95373 h -13.57841 a 8.3360075,8.3360075 0 0 1 -8.336011,-8.33601 7.640018,7.640018 0 0 1 8.336011,-6.87391 h 16.57875 c 7.15429,-1.5e-4 12.95387,-5.79996 12.95373,-12.95425 z"
         id="path64" /><path
         style="fill:url(#linearGradient119);fill-opacity:1;stroke:#00ccff;stroke-width:0"
         d="m 158.16897,149.67728 h -12.95425 v 13.51123 a 8.3360075,8.3360075 0 0 1 -8.336,8.33601 7.6400181,7.6400181 0 0 1 -6.87392,-8.33601 v -16.46506 c -7e-5,-0.84845 -0.0835,-1.69484 -0.24908,-2.52698 -0.16544,-0.83229 -0.41226,-1.64632 -0.73691,-2.43034 -0.32482,-0.78379 -0.72586,-1.53377 -1.19734,-2.23914 -0.47133,-0.70557 -1.01084,-1.36312 -1.61076,-1.96319 -0.60006,-0.59992 -1.25761,-1.13943 -1.96318,-1.61075 -2.13014,-1.42341 -4.63452,-2.18321 -7.19646,-2.18333 v 12.95373 15.60704 a 22.176704,22.176704 0 0 0 22.1767,22.1767 20.622503,20.622503 0 0 0 18.9412,-22.1767 z"
         id="path63" /><path
         style="fill:url(#linearGradient121);fill-opacity:1;stroke:#00ccff;stroke-width:0"
         d="m 135.99227,67.821809 a 20.622503,20.622503 0 0 0 -18.9412,22.176702 V 102.60521 H 130.0048 V 89.026801 a 8.3360075,8.3360075 0 0 1 8.33601,-8.33601 7.6400181,7.6400181 0 0 1 6.87391,8.33601 v 16.578749 c 0,7.15443 5.79982,12.95425 12.95425,12.95425 V 105.60555 89.998511 a 22.176704,22.176704 0 0 0 -22.1767,-22.176702 z"
         id="path62" /><path
         style="mix-blend-mode:luminosity;fill:url(#linearGradient125);fill-opacity:1;fill-rule:evenodd;stroke:#00ccff;stroke-width:0"
         d="m 173.76692,105.66401 h -12.57131 v 12.91735 h 13.42689 a 8.3122654,8.3122654 0 0 1 8.31227,8.31226 7.6182582,7.6182582 0 0 1 -8.31227,6.85434 h -16.41817 -5.1e-4 c -0.84603,7e-5 -1.69001,0.0833 -2.51978,0.24837 -0.82993,0.16497 -1.64163,0.41109 -2.42342,0.73481 -4.82666,1.99933 -7.97368,6.7093 -7.97364,11.93366 h 12.91735 15.56259 a 22.113542,22.113542 0 0 0 22.11354,-22.11354 20.563767,20.563767 0 0 0 -22.11354,-18.88725 z"
         id="path60" /></g></g></svg>
